<?xml version="1.0" standalone="no"?>
<!DOCTYPE svg PUBLIC "-//W3C//DTD SVG 20010904//EN"
 "http://www.w3.org/TR/2001/REC-SVG-20010904/DTD/svg10.dtd">
<svg version="1.0" xmlns="http://www.w3.org/2000/svg"
 width="200.000000pt" height="200.000000pt" viewBox="0 0 200.000000 200.000000"
 preserveAspectRatio="xMidYMid meet">

<g transform="translate(0.000000,200.000000) scale(0.100000,-0.100000)"
fill="#000000" stroke="none">
<path d="M705 1786 c-64 -28 -100 -96 -89 -165 5 -34 1 -40 -60 -101 -36 -35
-66 -73 -66 -83 0 -36 19 -57 53 -57 25 0 44 12 94 62 61 61 62 61 120 62 67
1 103 20 133 69 24 39 26 95 4 104 -10 4 -30 -9 -58 -36 l-42 -41 -37 38 c-20
21 -37 42 -37 47 0 5 16 26 36 46 56 58 27 89 -51 55z m6 -61 c-17 -20 -31
-41 -31 -47 0 -17 95 -108 113 -108 9 0 32 14 52 31 43 38 46 22 4 -25 -35
-40 -86 -55 -126 -37 -25 11 -30 8 -97 -58 -73 -73 -92 -83 -103 -55 -4 11 17
38 66 88 68 68 71 73 62 104 -13 43 3 96 36 122 43 34 59 24 24 -15z"/>
<path d="M935 1536 c-32 -14 -90 -74 -107 -111 -9 -19 -15 -21 -59 -17 -41 4
-49 2 -49 -12 0 -12 9 -16 35 -16 19 0 35 -2 35 -5 0 -2 -14 -25 -32 -50 -27
-39 -33 -56 -36 -113 -1 -37 1 -73 6 -79 4 -7 44 -22 88 -34 62 -17 119 -22
269 -26 195 -5 313 6 410 40 l40 14 0 81 c0 75 -2 82 -32 120 -35 44 -34 52 9
52 19 0 28 5 28 16 0 14 -8 16 -49 11 -47 -6 -50 -4 -61 22 -15 36 -77 97
-113 110 -42 16 -345 13 -382 -3z m186 -83 c23 -38 49 -78 57 -91 l15 -23
-157 3 c-135 3 -156 1 -154 -12 3 -13 39 -15 253 -15 216 0 250 2 250 15 0 8
-8 14 -18 14 -12 -1 -32 19 -60 62 -39 59 -67 81 -67 51 0 -7 16 -36 36 -65
l35 -53 -42 3 c-41 3 -43 5 -96 88 l-54 85 86 3 c73 2 91 0 120 -18 36 -22 95
-103 95 -130 0 -9 11 -22 25 -28 38 -17 67 -83 63 -145 l-3 -52 -75 -18 c-153
-38 -488 -33 -629 9 l-51 15 0 45 c0 58 20 103 58 136 17 14 34 38 38 54 4 15
30 52 59 81 51 53 52 53 112 53 l61 0 43 -67z"/>
<path d="M837 1247 c-10 -6 -20 -28 -23 -48 -7 -44 1 -48 104 -56 70 -6 72 -5
72 17 0 13 -17 39 -39 61 -41 41 -81 51 -114 26z m85 -48 l33 -30 -45 6 c-52
8 -65 17 -57 39 10 24 33 19 69 -15z"/>
<path d="M1334 1226 c-35 -35 -45 -79 -21 -89 13 -5 102 7 137 18 14 4 20 15
20 33 0 77 -76 98 -136 38z m96 -15 c12 -23 8 -27 -47 -36 -50 -8 -56 4 -17
34 33 26 50 26 64 2z"/>
<path d="M1050 1135 c0 -12 16 -15 85 -15 69 0 85 3 85 15 0 12 -16 15 -85 15
-69 0 -85 -3 -85 -15z"/>
<path d="M745 1082 c-14 -14 -2 -31 25 -37 28 -6 30 -10 30 -50 0 -52 19 -75
61 -75 48 0 69 16 69 53 l0 33 199 0 199 0 6 -30 c9 -43 24 -56 65 -56 48 0
61 14 61 68 0 39 3 45 30 55 27 10 38 26 25 39 -3 2 -37 -5 -77 -16 -64 -17
-103 -20 -308 -20 -204 1 -245 3 -308 21 -40 11 -74 17 -77 15z m155 -93 c0
-26 -4 -29 -30 -29 -27 0 -30 3 -30 33 0 32 2 33 30 29 25 -4 30 -9 30 -33z
m530 6 c0 -32 -2 -35 -30 -35 -27 0 -30 3 -30 29 0 29 2 30 53 40 4 0 7 -15 7
-34z"/>
<path d="M854 826 c-9 -24 4 -48 23 -44 12 2 18 12 18 28 0 29 -32 41 -41 16z"/>
<path d="M620 806 c0 -8 7 -16 15 -20 12 -4 15 -25 15 -96 0 -71 -3 -92 -15
-96 -8 -4 -15 -13 -15 -21 0 -18 101 -14 108 5 2 7 -5 12 -17 12 -18 0 -21 6
-21 40 l0 40 50 0 c43 0 50 3 50 20 0 17 -7 20 -50 20 l-50 0 0 35 c0 34 1 35
40 35 29 0 40 -4 40 -15 0 -8 9 -15 20 -15 16 0 20 7 20 35 l0 35 -95 0 c-75
0 -95 -3 -95 -14z"/>
<path d="M1154 809 c-4 -7 1 -16 10 -21 23 -13 24 -186 1 -194 -8 -4 -15 -12
-15 -20 0 -10 13 -14 45 -14 33 0 45 4 45 14 0 8 -4 18 -10 21 -5 3 -10 47
-10 96 0 70 3 91 15 95 8 4 15 12 15 20 0 17 -85 20 -96 3z"/>
<path d="M1297 769 c-28 -32 -34 -49 -17 -49 6 0 10 -24 10 -54 0 -30 4 -67
10 -81 9 -23 15 -26 52 -23 48 3 63 25 21 30 -27 3 -28 5 -31 65 -3 57 -1 62
19 65 33 4 36 28 5 28 -21 0 -26 5 -26 25 0 33 -10 32 -43 -6z"/>
<path d="M830 741 c0 -5 7 -14 15 -21 10 -8 15 -31 15 -67 0 -38 -4 -55 -15
-59 -8 -4 -15 -12 -15 -20 0 -10 13 -14 45 -14 33 0 45 4 45 15 0 8 -4 15 -10
15 -6 0 -10 33 -10 80 l0 80 -35 0 c-19 0 -35 -4 -35 -9z"/>
<path d="M940 746 c0 -2 16 -21 35 -42 19 -21 35 -41 35 -44 0 -3 -16 -23 -35
-44 -19 -21 -35 -42 -35 -47 0 -5 18 -9 40 -9 28 0 40 4 40 14 0 8 -5 16 -11
18 -6 2 -2 11 9 22 20 17 21 17 32 -3 7 -14 7 -21 0 -21 -5 0 -10 -7 -10 -15
0 -11 12 -15 45 -15 52 0 55 8 19 47 -46 49 -46 57 -9 94 19 19 35 37 35 42 0
4 -18 7 -39 7 -37 0 -40 -2 -38 -27 1 -19 -3 -28 -13 -28 -10 0 -14 9 -13 28
2 26 0 27 -43 27 -24 0 -44 -2 -44 -4z"/>
</g>
</svg>
